# xmcd
#
# Track frame offsets:
#	150
#	13289
#	27174
#	40956
#	54124
#	65761
#	81420
#	93395
#	104496
#	117248
#	141692
#	154177
#	168477
#	183847
#	196073
#	208890
#	221794
#	234623
#	254320
#	264658
#
# Disc length: 4045 seconds
#
# Revision: 0
# Processed by: cddbd v1.4PL0 Copyright (c) Steve Scherf et al.
# Submitted via: EasyCDDAExtractor 5.0.0.0
#
DISCID=2d0fcb14
DTITLE=Various Artist - Best of the Blues cd1
DYEAR=2000
DGENRE=Blues
TTITLE0=Dust my broom
TTITLE1=Smokestack lightning
TTITLE2=Walkin' the blues
TTITLE3=Mannish boy
TTITLE4=Don't start me talkin'
TTITLE5=You can't judge a book by it's cover
TTITLE6=Everyday I have the blues
TTITLE7=Lonesome
TTITLE8=Boom boom
TTITLE9=Bluebird
TTITLE10=Hoochie coochie man
TTITLE11=Reconsider baby
TTITLE12=Tell it like it is
TTITLE13=The sun is shining
TTITLE14=Crazy for my baby
TTITLE15=Poor man blues
TTITLE16=Killin' floor
TTITLE17=Shake it baby
TTITLE18=Worried life blues
TTITLE19=Why I sing the blues
EXTD=
EXTT0=
EXTT1=
EXTT2=
EXTT3=
EXTT4=
EXTT5=
EXTT6=
EXTT7=
EXTT8=
EXTT9=
EXTT10=
EXTT11=
EXTT12=
EXTT13=
EXTT14=
EXTT15=
EXTT16=
EXTT17=
EXTT18=
EXTT19=
PLAYORDER=
